<svg xmlns="http://www.w3.org/2000/svg" viewBox="0 0 1653 1846"><defs><style>.cls-1{fill:#2e3192;}.cls-2{fill:#fff;}</style></defs><title>favicon</title><g id="Layer_4" data-name="Layer 4"><path class="cls-1" d="M171.5,80V1526a262,262,0,0,0,262,262h432a138,138,0,0,1,138,138,138,138,0,0,1,138-138h421a262,262,0,0,0,262-262V80Z" transform="translate(-171.5 -80)"/></g><g id="Layer_3" data-name="Layer 3"><path class="cls-2" d="M1144.11,1281.25a40,40,0,0,0,56.57,0l14.14-14.14a40,40,0,0,0,0-56.57l-102-102-70.71,70.71Z" transform="translate(-171.5 -80)"/><path class="cls-2" d="M771.54,590,657.72,476.22,478.93,655c17.72,17.63,27.72,43,25.78,71.9-2,29.42-15.94,56.8-36.79,77.09l44.83,44.83,99.47-99.46L759.06,896.21,800,795.69l-117-117Z" transform="translate(-171.5 -80)"/><path class="cls-2" d="M1160.92,897.8,848.18,1210.54a40,40,0,0,0,0,56.57l14.14,14.14a40,40,0,0,0,56.57,0L1212.64,987.5Z" transform="translate(-171.5 -80)"/><polygon class="cls-2" points="849.39 936.61 731.13 818.35 679.41 908.06 778.68 1007.32 849.39 936.61"/><path class="cls-2" d="M1137.94,526s-11-32-49-51a125,125,0,0,0-57-13,132.6,132.6,0,0,0-57,13c-36,17-49,51-49,51l-418,1027,524-909,524,909Z" transform="translate(-171.5 -80)"/><path class="cls-2" d="M1596.08,898.22c-32.49-183.3-177.07-327.87-360.36-360.36l142.5,142.51L1262.9,795.69l40.9,100.52,145.13-145.13Z" transform="translate(-171.5 -80)"/></g></svg>